<?xml version="1.0" encoding="UTF-8"?>
<svg xmlns="http://www.w3.org/2000/svg" xmlns:xlink="http://www.w3.org/1999/xlink" width="138pt" height="138.75pt" viewBox="0 0 138 138.75" version="1.1">
<g id="surface1">
<path style=" stroke:none;fill-rule:nonzero;fill:rgb(30.196078%,53.333333%,48.235294%);fill-opacity:1;" d="M 116.136719 41.753906 L 109.96875 47.890625 L 76.65625 81.03125 C 70.488281 87.167969 60.308594 87.167969 54.140625 81.03125 C 53.832031 80.726562 53.214844 80.109375 52.90625 79.496094 L 43.035156 89.316406 C 43.34375 89.929688 43.960938 90.238281 44.269531 90.851562 C 55.992188 102.511719 74.804688 102.511719 86.527344 90.851562 L 109.351562 68.144531 C 109.660156 79.804688 105.652344 91.773438 96.398438 100.671875 C 79.125 117.855469 51.363281 117.855469 34.398438 100.671875 C 34.089844 100.363281 33.472656 99.75 33.164062 99.441406 L 23.296875 109.261719 C 23.605469 109.875 24.222656 110.183594 24.527344 110.492188 C 47.046875 132.890625 83.75 132.890625 106.578125 110.492188 C 125.082031 91.773438 128.476562 63.539062 116.136719 41.753906 Z M 116.136719 41.753906 "/>
<path style=" stroke:none;fill-rule:nonzero;fill:rgb(30.196078%,53.333333%,48.235294%);fill-opacity:1;" d="M 76.65625 58.628906 C 76.964844 58.9375 77.582031 59.550781 77.890625 60.164062 L 87.761719 50.34375 C 87.453125 49.730469 86.835938 49.425781 86.527344 48.8125 C 74.804688 37.148438 55.992188 37.148438 44.269531 48.8125 L 21.445312 71.519531 C 21.136719 59.859375 25.144531 47.890625 34.398438 38.992188 C 51.671875 21.808594 79.433594 21.808594 96.398438 38.992188 C 96.707031 39.296875 97.324219 39.910156 97.628906 40.21875 L 107.5 30.398438 C 107.191406 29.785156 106.578125 29.480469 106.265625 29.171875 C 83.75 6.769531 47.046875 6.769531 24.222656 29.171875 C 5.40625 47.890625 2.320312 76.121094 14.660156 97.910156 L 21.136719 91.464844 L 54.140625 58.628906 C 60.308594 52.492188 70.488281 52.492188 76.65625 58.628906 Z M 76.65625 58.628906 "/>
</g>
</svg>
