<?xml version='1.0' encoding='UTF-8'?>
<svg xmlns="http://www.w3.org/2000/svg" xmlns:xlink="http://www.w3.org/1999/xlink" xml:space="preserve" version="1.2" baseProfile="tiny-ps" viewBox="0 0 185 185">
  <title>Bewell Shop – BIMI Logo</title>
  <g transform="translate(-548 -53)">
    <g>
      <g>
        <g>
          <path d="M169.388 78.966 161.205 87.149 117.017 131.337C108.834 139.52 95.332 139.52 87.149 131.337 86.7399 130.928 85.9216 130.11 85.5124 129.292L72.4196 142.384C72.8288 143.203 73.6471 143.612 74.0562 144.43 89.6039 159.978 114.562 159.978 130.11 144.43L160.387 114.153C160.796 129.701 155.477 145.658 143.203 157.523 120.29 180.435 83.4667 180.435 60.9634 157.523 60.5542 157.114 59.7359 156.295 59.3268 155.886L46.234 168.979C46.6431 169.797 47.4614 170.207 47.8706 170.616 77.7386 200.484 126.427 200.484 156.705 170.616 181.254 145.658 185.754 108.016 169.388 78.966Z" fill="#4D887B" fill-rule="nonzero" fill-opacity="1" transform="matrix(1.00516 0 0 1 532.588 29.7049)"/>
          <path d="M117.017 101.469C117.426 101.878 118.244 102.697 118.654 103.515L131.746 90.4222C131.337 89.6039 130.519 89.1948 130.11 88.3765 114.562 72.8288 89.6039 72.8288 74.0562 88.3765 74.0562 88.3765 74.0562 88.3765 74.0562 88.3765L43.7791 118.654C43.3699 103.106 48.6889 87.149 60.9634 75.2837 83.8758 52.3712 120.699 52.3712 143.203 75.2837 143.612 75.6928 144.43 76.5111 144.839 76.9203L157.932 63.8274C157.523 63.0091 156.705 62.6 156.295 62.1908 126.427 32.3229 77.7386 32.3229 47.4614 62.1908 22.5033 87.149 18.4118 124.791 34.7778 153.841L43.3699 145.248 87.149 101.469C95.332 93.2863 108.834 93.2863 117.017 101.469Z" fill="#4D887B" fill-rule="nonzero" fill-opacity="1" transform="matrix(1.00516 0 0 1 532.588 29.7049)"/>
          <path d="M799.889 146.885C799.889 152.534 795.309 157.114 789.66 157.114 784.011 157.114 779.431 152.534 779.431 146.885 779.431 141.236 784.011 136.656 789.66 136.656 795.309 136.656 799.889 141.236 799.889 146.885Z" fill="#4D887B" fill-rule="nonzero" fill-opacity="1" transform="matrix(1.00516 0 0 1 532.588 29.7049)"/>
          <path d="M374.373 97.7869C374.373 84.6941 369.054 79.3752 356.779 79.3752 349.005 79.3752 342.05 82.2392 336.731 88.3765L324.456 78.966C332.23 69.1464 343.277 64.6458 358.416 64.6458 373.554 64.6458 383.783 69.5556 388.693 78.966 391.148 83.8758 392.375 89.6039 392.375 101.06L392.375 156.705 378.055 156.705 376.827 150.976C371.099 156.705 364.553 158.75 351.46 158.75 328.957 158.75 320.365 151.386 320.365 131.337 320.365 110.471 328.957 103.515 354.324 103.515L374.373 103.515 374.373 97.7869ZM356.37 115.79C342.868 115.79 337.549 119.881 337.549 130.519 337.549 140.748 342.05 144.021 355.961 144.021 364.553 144.021 369.463 142.384 372.327 138.702 373.963 136.247 374.373 133.792 374.373 127.246L374.373 115.38 356.37 115.38Z" fill="#405A56" fill-rule="nonzero" fill-opacity="1" transform="matrix(1.00516 0 0 1 532.588 29.7049)"/>
          <path d="M415.288 66.2824 429.199 66.2824 431.244 74.0562C436.973 67.1006 442.291 64.6458 451.293 64.6458 457.839 64.6458 462.749 65.8732 469.705 69.9647L461.931 85.1033C457.43 81.8301 454.157 80.6026 449.656 80.6026 438.2 80.6026 433.29 90.0131 433.29 112.925L433.29 156.705 415.288 156.705 415.288 66.2824Z" fill="#405A56" fill-rule="nonzero" fill-opacity="1" transform="matrix(1.00516 0 0 1 532.588 29.7049)"/>
          <path d="M543.761 66.2824 557.672 66.2824 558.899 75.2837C564.627 67.5098 571.583 64.6458 583.448 64.6458 599.405 64.6458 609.225 70.3739 613.725 81.8301 615.362 87.149 616.18 93.6954 616.18 104.742L616.18 156.295 598.178 156.295 598.178 106.788C598.178 87.5582 593.268 80.1935 580.584 80.1935 567.082 80.1935 561.763 88.3765 561.763 110.471L561.763 156.705 543.761 156.705 543.761 66.2824Z" fill="#405A56" fill-rule="nonzero" fill-opacity="1" transform="matrix(1.00516 0 0 1 532.588 29.7049)"/>
          <path d="M652.595 118.654C652.595 135.02 660.369 143.612 675.098 143.612 684.099 143.612 689.827 141.157 694.737 134.61L708.239 142.384C700.875 153.431 690.646 157.932 673.461 157.932 646.867 157.932 635.001 144.839 635.001 115.38L635.001 108.425C635.001 77.7386 646.048 64.6458 672.643 64.6458 699.238 64.6458 710.285 77.7386 710.285 108.425L710.285 115.38 653.413 115.38 653.413 118.654ZM692.282 102.697 692.282 101.06C692.282 86.3307 685.327 78.5569 672.234 78.5569 664.051 78.5569 659.141 81.0118 655.868 86.3307 653.822 90.0131 652.186 95.7412 652.186 101.06L652.186 102.697 692.282 102.697Z" fill="#405A56" fill-rule="nonzero" fill-opacity="1" transform="matrix(1.00516 0 0 1 532.588 29.7049)"/>
          <path d="M728.697 66.2824 742.608 66.2824 744.654 74.0562C750.382 67.1006 755.701 64.6458 764.702 64.6458 771.248 64.6458 776.158 65.8732 783.114 69.9647L775.34 85.1033C770.839 81.8301 767.566 80.6026 763.065 80.6026 751.609 80.6026 746.699 90.0131 746.699 112.925L746.699 156.705 728.697 156.705 728.697 66.2824Z" fill="#405A56" fill-rule="nonzero" fill-opacity="1" transform="matrix(1.00516 0 0 1 532.588 29.7049)"/>
          <path d="M891.129 142.384C884.174 153.022 873.536 157.932 858.397 157.932 833.439 157.932 821.574 144.021 821.574 115.38L821.574 108.834C821.574 78.5569 833.03 64.6458 857.988 64.6458 873.127 64.6458 883.356 69.9647 889.493 80.6026L875.991 88.3765C871.081 81.8301 866.99 79.3752 859.216 79.3752 846.123 79.3752 839.576 88.3765 839.576 107.607L839.576 117.426C839.576 134.61 846.123 144.021 859.625 144.021 867.808 144.021 873.127 141.566 877.627 135.02L891.129 142.384Z" fill="#405A56" fill-rule="nonzero" fill-opacity="1" transform="matrix(1.00516 0 0 1 532.588 29.7049)"/>
          <path d="M903.813 104.333C903.813 76.5111 915.678 64.6458 941.864 64.6458 968.05 64.6458 979.915 76.9203 979.915 104.333L979.915 118.244C979.915 146.067 968.05 157.932 941.864 157.932 915.269 157.932 903.813 145.658 903.813 118.244L903.813 104.333ZM961.912 105.561C961.912 87.149 955.775 78.966 941.864 78.966 927.953 78.966 921.816 87.149 921.816 105.561L921.816 117.017C921.816 135.429 927.953 143.612 941.864 143.612 955.775 143.612 961.912 135.429 961.912 117.017L961.912 105.561Z" fill="#405A56" fill-rule="nonzero" fill-opacity="1" transform="matrix(1.00516 0 0 1 532.588 29.7049)"/>
          <path d="M508.574 124.382 508.574 81.0118 526.167 81.0118 526.167 66.2824 508.574 66.2824 508.574 38.8693 491.39 38.8693 490.571 66.2824 479.933 66.2824 479.933 81.0118 490.571 81.0118 490.571 122.745C490.571 150.158 496.708 156.295 523.712 156.295L526.986 156.295 526.986 141.566 523.712 141.566C511.847 141.975 508.574 137.475 508.574 124.382Z" fill="#405A56" fill-rule="nonzero" fill-opacity="1" transform="matrix(1.00516 0 0 1 532.588 29.7049)"/>
          <path d="M270.039 64.6458C258.992 64.6458 252.037 67.1006 245.081 73.2379L243.444 66.6915 229.124 66.6915 229.124 189.027C234.852 192.301 240.99 193.528 247.127 193.528L247.127 150.976C253.673 155.886 260.22 157.932 269.63 157.932 293.361 157.932 303.59 145.658 303.59 117.835L303.59 104.333C303.59 76.9203 293.361 64.6458 270.039 64.6458ZM285.996 117.017C285.996 135.429 279.859 143.612 266.766 143.612 253.673 143.612 247.536 135.838 247.536 119.472L247.536 103.106C247.536 87.149 254.082 78.966 266.766 78.966 279.859 78.966 285.996 87.5582 285.996 105.561L285.996 117.017Z" fill="#405A56" fill-rule="nonzero" fill-opacity="1" transform="matrix(1.00516 0 0 1 532.588 29.7049)"/>
          <path d="M993.826 68.7373 989.326 68.7373 989.326 66.2824 1001.6 66.2824 1001.6 68.7373 997.099 68.7373 997.099 81.8301 994.235 81.8301 994.235 68.7373ZM1003.24 66.2824 1006.1 66.2824 1010.6 75.2837 1015.1 66.2824 1017.97 66.2824 1017.97 81.8301 1015.1 81.8301 1015.1 71.6013 1011.42 78.5569 1009.37 78.5569 1005.69 71.6013 1005.69 81.8301 1002.83 81.8301 1002.83 66.2824Z" fill="#405A56" fill-rule="nonzero" fill-opacity="1" transform="matrix(1.00516 0 0 1 532.588 29.7049)"/>
        </g>
      </g>
    </g>
  </g>
</svg>
